<?xml version="1.0" encoding="UTF-8" standalone="no"?>
<svg width="65px" height="53px" viewBox="0 0 65 53" version="1.1" xmlns="http://www.w3.org/2000/svg" xmlns:xlink="http://www.w3.org/1999/xlink">
    <!-- Generator: Sketch 3.7.1 (28215) - http://www.bohemiancoding.com/sketch -->
    <title>Brush</title>
    <desc>Created with Sketch.</desc>
    <defs></defs>
    <g id="Desktop" stroke="none" stroke-width="1" fill="none" fill-rule="evenodd">
        <g id="1-1-Frontend-Test-Project-Desktop" transform="translate(-338.000000, -1330.000000)" fill="#CECED2">
            <g id="ABOUT-US" transform="translate(149.000000, 1015.000000)">
                <g id="01" transform="translate(130.000000, 315.000000)">
                    <path d="M89.4464678,41.9593657 C89.082671,42.3686371 88.6466492,42.2730733 88.4565648,41.766706 C88.4565648,41.766706 87.9168501,39.7071013 85.9847394,37.7749907 C84.0526288,35.8428801 81.9930241,35.3031654 81.9930241,35.3031654 C81.4773497,35.1202538 81.3909836,34.6771564 81.8003644,34.3132623 L120.064537,0.300664597 C120.473808,-0.0631322165 121.123175,-0.0404611395 121.508019,0.344382423 L123.415348,2.25171158 C123.803289,2.63965309 123.82296,3.28581243 123.459066,3.69519326 L89.4464678,41.9593657 Z M59.5830873,49.4674107 C71.3754035,55.3119161 80.6243943,52.2548982 83.3834819,49.4958105 C86.1425696,46.7367228 86.6060444,42.7268326 83.8469567,39.9677449 C81.087869,37.2086572 76.614504,37.2086572 73.8554164,39.9677449 C71.0963287,42.7268326 71.334615,49.7752267 59.5830873,49.4674107 Z" id="Brush"></path>
                </g>
            </g>
        </g>
    </g>
</svg>