<?xml version="1.0" encoding="UTF-8" standalone="no"?>
<svg width="35px" height="31px" viewBox="0 0 35 31" version="1.1" xmlns="http://www.w3.org/2000/svg" xmlns:xlink="http://www.w3.org/1999/xlink">
    <!-- Generator: Sketch 3.7.1 (28215) - http://www.bohemiancoding.com/sketch -->
    <title>Page 1</title>
    <desc>Created with Sketch.</desc>
    <defs></defs>
    <g id="Desktop" stroke="none" stroke-width="1" fill="none" fill-rule="evenodd">
        <g id="Stylesheet" transform="translate(-908.000000, -1368.000000)" fill="#E43B40">
            <g id="Write-a-comment" transform="translate(72.000000, 1337.000000)">
                <path d="M870.573311,58.5466171 L855.703787,32.7910516 C854.703252,31.0601836 853.069611,31.0601836 852.069077,32.7910516 L837.199552,58.5466171 C836.201844,60.2774852 837.018665,61.6929305 839.016907,61.6929305 L868.758218,61.6929305 C870.754199,61.6951916 871.573281,60.2774852 870.573311,58.5466171 L870.573311,58.5466171 Z M853.945786,59.4594527 C852.59252,59.4594527 851.495324,58.3616912 851.495324,57.0084259 C851.495324,55.6545954 852.59252,54.5573992 853.945786,54.5573992 C855.299616,54.5573992 856.396812,55.6545954 856.396812,57.0084259 C856.399073,58.3616912 855.301877,59.4594527 853.945786,59.4594527 L853.945786,59.4594527 Z M856.876164,43.4395961 L856.529652,49.9447658 C856.458992,51.2737243 855.310922,52.3624414 853.976876,52.3624414 L853.917522,52.3624414 C852.585737,52.3624414 851.424665,51.2737243 851.340439,49.9470269 L850.923267,43.437335 C850.83678,42.1083765 851.857099,41.0196594 853.191145,41.0196594 L854.58398,41.0196594 C855.915764,41.0219205 856.946824,42.1100723 856.876164,43.4395961 L856.876164,43.4395961 Z" id="Page-1"></path>
            </g>
        </g>
    </g>
</svg>