<?xml version="1.0" encoding="UTF-8" standalone="no"?>
<svg width="28px" height="28px" viewBox="0 0 28 28" version="1.1" xmlns="http://www.w3.org/2000/svg" xmlns:xlink="http://www.w3.org/1999/xlink">
    <!-- Generator: Sketch 3.7.1 (28215) - http://www.bohemiancoding.com/sketch -->
    <title>icn-facebook</title>
    <desc>Created with Sketch.</desc>
    <defs></defs>
    <g id="Desktop" stroke="none" stroke-width="1" fill="none" fill-rule="evenodd">
        <g id="1-1-Frontend-Test-Project-Desktop" transform="translate(-730.000000, -4819.000000)" fill="#FFFFFF">
            <g id="FOOTER" transform="translate(0.000000, 4783.000000)">
                <g id="Social" transform="translate(643.000000, 36.000000)">
                    <path d="M104.705815,13.9420078 L102.281514,13.9420078 L102.281514,22.587963 L98.6882716,22.587963 L98.6882716,13.9420078 L96.9792073,13.9420078 L96.9792073,10.8894574 L98.6882716,10.8894574 L98.6882716,8.91146849 C98.6882716,7.49577648 99.3602989,5.28581871 102.315058,5.28581871 L104.975877,5.29605263 L104.975877,8.26104613 L103.043941,8.26104613 C102.728395,8.26104613 102.282083,8.41853476 102.282083,9.09169916 L102.282083,10.890026 L105.021361,10.890026 L104.705815,13.9420078 Z M101.000569,0 C93.2682749,0 87,6.26941196 87,14.0005686 C87,21.7328622 93.2682749,28 101.000569,28 C108.732862,28 115.001137,21.7328622 115.001137,14.0005686 C115.001137,6.26941196 108.732294,0 101.000569,0 L101.000569,0 Z" id="icn-facebook"></path>
                </g>
            </g>
        </g>
    </g>
</svg>