<?xml version="1.0" encoding="UTF-8" standalone="no"?>
<svg width="28px" height="28px" viewBox="0 0 28 28" version="1.1" xmlns="http://www.w3.org/2000/svg" xmlns:xlink="http://www.w3.org/1999/xlink">
    <!-- Generator: Sketch 3.7.1 (28215) - http://www.bohemiancoding.com/sketch -->
    <title>icn-twitter</title>
    <desc>Created with Sketch.</desc>
    <defs></defs>
    <g id="Desktop" stroke="none" stroke-width="1" fill="none" fill-rule="evenodd">
        <g id="1-1-Frontend-Test-Project-Desktop" transform="translate(-769.000000, -4819.000000)" fill="#FFFFFF">
            <g id="FOOTER" transform="translate(0.000000, 4783.000000)">
                <g id="Social" transform="translate(643.000000, 36.000000)">
                    <path d="M147.052875,11.1777128 C147.060266,11.3289474 147.063109,11.4807505 147.063109,11.6342593 C147.063109,16.2969461 143.514214,21.6725958 137.024773,21.6725958 C135.03257,21.6725958 133.177388,21.088694 131.616147,20.0880442 C131.892463,20.1204516 132.172758,20.1369396 132.457602,20.1369396 C134.110949,20.1369396 135.632391,19.572937 136.839425,18.6268681 C135.295809,18.597872 133.993259,17.5773229 133.544103,16.1758447 C133.759016,16.2179175 133.980182,16.2389539 134.207602,16.2389539 C134.529402,16.2389539 134.840968,16.1968811 135.137183,16.1155783 C133.522498,15.7915042 132.306368,14.3644412 132.306368,12.656514 C132.306368,12.6411631 132.306368,12.6263808 132.306936,12.6110299 C132.782245,12.8754061 133.326348,13.0340318 133.905133,13.052794 C132.957927,12.4188596 132.335364,11.3403184 132.335364,10.1156595 C132.335364,9.46921702 132.50934,8.8625731 132.812947,8.34178038 C134.553281,10.4761209 137.153265,11.8810104 140.085851,12.0276966 C140.025585,11.7701429 139.994314,11.5000812 139.994314,11.2237654 C139.994314,9.27590968 141.573749,7.69590643 143.522742,7.69590643 C144.537606,7.69590643 145.45411,8.12459389 146.09771,8.80969786 C146.901641,8.65220923 147.656676,8.35769981 148.338369,7.95346004 C148.073993,8.777859 147.515107,9.46921702 146.786225,9.90529565 C147.500893,9.820013 148.18088,9.63011696 148.813109,9.34982131 C148.341212,10.0588044 147.742528,10.6802307 147.052875,11.1777128 M140.000569,-3.55271368e-15 C132.268275,-3.55271368e-15 126,6.26941196 126,14.0005686 C126,21.7328622 132.268275,28 140.000569,28 C147.732862,28 154,21.7328622 154,14.0005686 C154,6.26941196 147.732294,-3.55271368e-15 140.000569,-3.55271368e-15" id="icn-twitter"></path>
                </g>
            </g>
        </g>
    </g>
</svg>