<?xml version="1.0" encoding="UTF-8" standalone="no"?>
<svg width="293px" height="182px" viewBox="0 0 293 182" version="1.1" xmlns="http://www.w3.org/2000/svg" xmlns:xlink="http://www.w3.org/1999/xlink">
    <!-- Generator: Sketch 3.7.1 (28215) - http://www.bohemiancoding.com/sketch -->
    <title>Group</title>
    <desc>Created with Sketch.</desc>
    <defs></defs>
    <g id="Mobile" stroke="none" stroke-width="1" fill="none" fill-rule="evenodd" opacity="0.05">
        <g id="2-1-Frontend-Test-Project-Mobile" transform="translate(-15.000000, -783.000000)" fill="#000000">
            <g id="ABOUT-US" transform="translate(10.000000, 687.000000)">
                <g id="Group" transform="translate(5.000000, 96.000000)">
                    <polygon id="Path" points="235 182 288.338957 182 288.338957 166.214724 253.840491 166.214724 253.840491 147.119632 282.101227 147.119632 282.101227 131.461656 253.840491 131.461656 253.840491 114.785276 287.065951 114.785276 287.065951 99 235 99"></polygon>
                    <path d="M159,182 L183.569018,182 C207.883436,182 224.177914,168.633436 224.177914,140.118098 C224.177914,111.602761 207.883436,99 182.423313,99 L159,99 L159,182 Z M177.840491,166.851227 L177.840491,114.148773 L181.404908,114.148773 C195.407975,114.148773 204.955521,120.259202 204.955521,140.118098 C204.955521,159.976994 195.407975,166.851227 181.404908,166.851227 L177.840491,166.851227 Z" id="Combined-Shape"></path>
                    <path d="M135.739264,182 L155.59816,182 L129.501534,99 L107.096626,99 L81,182 L100.095092,182 L105.187117,162.268405 L130.647239,162.268405 L135.739264,182 Z M109.006135,147.628834 L111.042945,139.990798 C113.334356,131.716258 115.625767,122.041411 117.535276,113.257669 L118.044479,113.257669 C120.33589,121.91411 122.5,131.716258 124.791411,139.990798 L126.828221,147.628834 L109.006135,147.628834 Z" id="Combined-Shape"></path>
                    <path d="M0,182 L17.3128834,182 L17.3128834,151.575153 C17.3128834,143.427914 15.7852761,131.334356 14.8941718,123.314417 L15.4033742,123.314417 L22.0230061,142.53681 L34.7530675,174.743865 L42.2638037,174.743865 L55.1211656,142.53681 L61.8680982,123.314417 L62.3773006,123.314417 C61.4861963,131.334356 59.958589,143.427914 59.958589,151.575153 L59.958589,182 L77.5260736,182 L77.5260736,99 L57.6671779,99 L44.1733129,136.29908 L39.208589,150.81135 L38.6993865,150.81135 L33.7346626,136.29908 L19.8588957,99 L0,99 L0,182 Z" id="Path"></path>
                    <path d="M226.861935,83 L251.430953,83 C275.74537,83 292.039849,69.6334356 292.039849,41.1180982 C292.039849,12.6027607 275.74537,0 250.285247,0 L226.861935,0 L226.861935,83 Z M245.702425,67.851227 L245.702425,15.148773 L249.266843,15.148773 C263.26991,15.148773 272.817456,21.2592025 272.817456,41.1180982 C272.817456,60.9769939 263.26991,67.851227 249.266843,67.851227 L245.702425,67.851227 Z" id="Combined-Shape"></path>
                    <path d="M147.634439,83 L165.583826,83 L165.583826,53.5935583 C165.583826,43.791411 164.056218,32.7162577 163.165114,23.5506135 L163.674316,23.5506135 L171.821556,41.6273006 L193.46266,83 L212.685053,83 L212.685053,0 L194.862967,0 L194.862967,29.2791411 C194.862967,39.0812883 196.390574,50.7929448 197.281678,59.5766871 L196.772476,59.5766871 L188.497936,41.2453988 L166.856832,0 L147.634439,0 L147.634439,83 Z" id="Path"></path>
                    <path d="M124.419213,83 L144.278109,83 L118.181483,0 L95.7765753,0 L69.6799496,83 L88.7750416,83 L93.8670661,63.2684049 L119.327189,63.2684049 L124.419213,83 Z M97.6860845,48.6288344 L99.7228944,40.9907975 C102.014305,32.7162577 104.305716,23.041411 106.215226,14.2576687 L106.724428,14.2576687 C109.015839,22.9141104 111.17995,32.7162577 113.471361,40.9907975 L115.50817,48.6288344 L97.6860845,48.6288344 Z" id="Combined-Shape"></path>
                    <polygon id="Path" points="1.70530257e-13 83 18.8404908 83 18.8404908 48.3742331 47.4831288 48.3742331 47.4831288 83 66.196319 83 66.196319 0 47.4831288 0 47.4831288 31.952454 18.8404908 31.952454 18.8404908 0 1.70530257e-13 0"></polygon>
                </g>
            </g>
        </g>
    </g>
</svg>