<?xml version="1.0" encoding="UTF-8" standalone="no"?>
<svg width="1159px" height="163px" viewBox="0 0 1159 163" version="1.1" xmlns="http://www.w3.org/2000/svg" xmlns:xlink="http://www.w3.org/1999/xlink">
    <!-- Generator: Sketch 3.7.1 (28215) - http://www.bohemiancoding.com/sketch -->
    <title>HANDMADE</title>
    <desc>Created with Sketch.</desc>
    <defs></defs>
    <g id="Desktop" stroke="none" stroke-width="1" fill="none" fill-rule="evenodd" opacity="0.05">
        <g id="1-1-Frontend-Test-Project-Desktop" transform="translate(-149.000000, -1109.000000)" fill="#000000">
            <g id="ABOUT-US" transform="translate(149.000000, 1015.000000)">
                <path d="M0,257 L37,257 L37,189 L93.25,189 L93.25,257 L130,257 L130,94 L93.25,94 L93.25,156.75 L37,156.75 L37,94 L0,94 L0,257 Z M191.841347,189.5 L195.841347,174.5 C200.341347,158.25 204.841347,139.25 208.591347,122 L209.591347,122 C214.091347,139 218.341347,158.25 222.841347,174.5 L226.841347,189.5 L191.841347,189.5 Z M244.341347,257 L283.341347,257 L232.091347,94 L188.091347,94 L136.841347,257 L174.341347,257 L184.341347,218.25 L234.341347,218.25 L244.341347,257 Z M289.932693,257 L325.182693,257 L325.182693,199.25 C325.182693,180 322.182693,158.25 320.432693,140.25 L321.432693,140.25 L337.432693,175.75 L379.932693,257 L417.682693,257 L417.682693,94 L382.682693,94 L382.682693,151.5 C382.682693,170.75 385.682693,193.75 387.432693,211 L386.432693,211 L370.182693,175 L327.682693,94 L289.932693,94 L289.932693,257 Z M445.52404,257 L493.77404,257 C541.52404,257 573.52404,230.75 573.52404,174.75 C573.52404,118.75 541.52404,94 491.52404,94 L445.52404,94 L445.52404,257 Z M482.52404,227.25 L482.52404,123.75 L489.52404,123.75 C517.02404,123.75 535.77404,135.75 535.77404,174.75 C535.77404,213.75 517.02404,227.25 489.52404,227.25 L482.52404,227.25 Z M593.615387,257 L627.615387,257 L627.615387,197.25 C627.615387,181.25 624.615387,157.5 622.865387,141.75 L623.865387,141.75 L636.865387,179.5 L661.865387,242.75 L676.615387,242.75 L701.865387,179.5 L715.115387,141.75 L716.115387,141.75 C714.365387,157.5 711.365387,181.25 711.365387,197.25 L711.365387,257 L745.865387,257 L745.865387,94 L706.865387,94 L680.365387,167.25 L670.615387,195.75 L669.615387,195.75 L659.865387,167.25 L632.615387,94 L593.615387,94 L593.615387,257 Z M807.706734,189.5 L811.706734,174.5 C816.206734,158.25 820.706734,139.25 824.456734,122 L825.456734,122 C829.956734,139 834.206734,158.25 838.706734,174.5 L842.706734,189.5 L807.706734,189.5 Z M860.206734,257 L899.206734,257 L847.956734,94 L803.956734,94 L752.706734,257 L790.206734,257 L800.206734,218.25 L850.206734,218.25 L860.206734,257 Z M905.79808,257 L954.04808,257 C1001.79808,257 1033.79808,230.75 1033.79808,174.75 C1033.79808,118.75 1001.79808,94 951.79808,94 L905.79808,94 L905.79808,257 Z M942.79808,227.25 L942.79808,123.75 L949.79808,123.75 C977.29808,123.75 996.04808,135.75 996.04808,174.75 C996.04808,213.75 977.29808,227.25 949.79808,227.25 L942.79808,227.25 Z M1053.88943,257 L1158.63943,257 L1158.63943,226 L1090.88943,226 L1090.88943,188.5 L1146.38943,188.5 L1146.38943,157.75 L1090.88943,157.75 L1090.88943,125 L1156.13943,125 L1156.13943,94 L1053.88943,94 L1053.88943,257 Z" id="HANDMADE"></path>
            </g>
        </g>
    </g>
</svg>