<?xml version="1.0" encoding="UTF-8" standalone="no"?>
<svg width="856px" height="170px" viewBox="0 0 856 170" version="1.1" xmlns="http://www.w3.org/2000/svg" xmlns:xlink="http://www.w3.org/1999/xlink">
    <!-- Generator: Sketch 3.7.1 (28215) - http://www.bohemiancoding.com/sketch -->
    <title>STRV M6</title>
    <desc>Created with Sketch.</desc>
    <defs></defs>
    <g id="Desktop" stroke="none" stroke-width="1" fill="none" fill-rule="evenodd" opacity="0.05">
        <g id="1-1-Frontend-Test-Project-Desktop" transform="translate(-297.000000, -2399.000000)" fill="#000000">
            <g id="HOW-IT-WORKS" transform="translate(0.000000, 1441.000000)">
                <g id="Image" transform="translate(226.000000, 958.000000)">
                    <path d="M71.5,146.421875 C88.25,161.921875 110.75,169.921875 132,169.921875 C170.75,169.921875 193.25,146.421875 193.25,119.421875 C193.25,96.421875 180.75,83.171875 161,75.171875 L140.25,66.671875 C126,60.921875 115.25,57.421875 115.25,47.421875 C115.25,38.171875 123.5,32.671875 136,32.671875 C149,32.671875 159.25,37.421875 170,45.671875 L188.5,22.421875 C174.5,8.421875 154.75,0.921875 136,0.921875 C102.25,0.921875 78,22.421875 78,49.421875 C78,73.171875 94,87.171875 111,93.921875 L132,102.921875 C146.25,108.921875 155.5,112.171875 155.5,122.421875 C155.5,132.171875 148,138.171875 132.75,138.171875 C119.25,138.171875 104.25,131.171875 92.75,121.171875 L71.5,146.421875 Z M237.091347,166.921875 L273.841347,166.921875 L273.841347,34.921875 L318.591347,34.921875 L318.591347,3.921875 L192.091347,3.921875 L192.091347,34.921875 L237.091347,34.921875 L237.091347,166.921875 Z M370.432693,33.171875 L389.182693,33.171875 C408.432693,33.171875 418.932693,38.671875 418.932693,54.671875 C418.932693,70.671875 408.432693,78.921875 389.182693,78.921875 L370.432693,78.921875 L370.432693,33.171875 Z M462.932693,166.921875 L426.182693,101.671875 C443.432693,93.921875 455.182693,78.671875 455.182693,54.671875 C455.182693,15.921875 426.682693,3.921875 392.182693,3.921875 L333.432693,3.921875 L333.432693,166.921875 L370.432693,166.921875 L370.432693,108.171875 L390.432693,108.171875 L421.682693,166.921875 L462.932693,166.921875 Z M500.52404,166.921875 L544.77404,166.921875 L594.02404,3.921875 L556.27404,3.921875 L537.02404,79.921875 C532.27404,97.671875 529.02404,114.171875 524.02404,132.171875 L523.02404,132.171875 C518.02404,114.171875 514.77404,97.671875 510.02404,79.921875 L490.27404,3.921875 L451.27404,3.921875 L500.52404,166.921875 Z M642.206734,166.921875 L676.206734,166.921875 L676.206734,107.171875 C676.206734,91.171875 673.206734,67.421875 671.456734,51.671875 L672.456734,51.671875 L685.456734,89.421875 L710.456734,152.671875 L725.206734,152.671875 L750.456734,89.421875 L763.706734,51.671875 L764.706734,51.671875 C762.956734,67.421875 759.956734,91.171875 759.956734,107.171875 L759.956734,166.921875 L794.456734,166.921875 L794.456734,3.921875 L755.456734,3.921875 L728.956734,77.171875 L719.206734,105.671875 L718.206734,105.671875 L708.456734,77.171875 L681.206734,3.921875 L642.206734,3.921875 L642.206734,166.921875 Z M872.54808,142.421875 C861.54808,142.421875 851.04808,134.421875 847.79808,109.421875 C855.04808,97.921875 863.79808,93.671875 871.79808,93.671875 C883.79808,93.671875 892.54808,99.921875 892.54808,116.671875 C892.54808,134.671875 883.54808,142.421875 872.54808,142.421875 L872.54808,142.421875 Z M923.79808,24.171875 C913.79808,13.921875 898.54808,5.171875 877.54808,5.171875 C844.04808,5.171875 813.29808,31.921875 813.29808,91.171875 C813.29808,146.921875 842.54808,169.921875 873.29808,169.921875 C902.04808,169.921875 926.04808,149.671875 926.04808,116.671875 C926.04808,83.171875 906.04808,67.671875 878.79808,67.671875 C869.04808,67.671875 855.29808,73.921875 847.04808,84.421875 C848.29808,47.421875 862.29808,34.921875 879.79808,34.921875 C889.04808,34.921875 899.04808,40.171875 904.54808,46.171875 L923.79808,24.171875 Z" id="STRV-M6"></path>
                </g>
            </g>
        </g>
    </g>
</svg>